# xmcd CD database file
#
# Track frame offsets:
#	150
#	25568
#	44799
#	67457
#	90006
#	113190
#	138428
#	155937
#	185446
#	203005
#	224067
#	240789
#
# Disc length: 3450 seconds
#
# Revision: 0
# Processed by: cddbd v1.5PL3 Copyright (c) Steve Scherf et al.
# Submitted via: CDex 1.51
#
DISCID=ac0d780c
DTITLE=Kyoko Gushiken - Okinawa
DYEAR=2000
DGENRE=New Age
TTITLE0=Agarijou
TTITLE1=Kagiyu Nukuchi
TTITLE2=Natsukashiki Furusato
TTITLE3=Nanyou Hamachidori
TTITLE4=Tarama Shongane
TTITLE5=Nishinjou Bushi
TTITLE6=Yanagijouwa
TTITLE7=Ashibi Shonkane
TTITLE8=Asapana
TTITLE9=Ichin Ayagu
TTITLE10=Kunyan Sabakui
TTITLE11=Umeno Kaori
EXTD=YEAR: 2000
EXTT0=
EXTT1=
EXTT2=
EXTT3=
EXTT4=
EXTT5=
EXTT6=
EXTT7=
EXTT8=
EXTT9=
EXTT10=
EXTT11=
PLAYORDER=
